DataType=double
version=3
OpenSimVersion=4.5.2-2025-05-03-6a4c6ec41
endheader
time	q	/jointset/head_joint/q/speed
0	0.3490658503988659	0
0.001	0.3490633935278694	-0.004913736464927318
0.002	0.34905603226464	-0.009808773430372831
0.003	0.3490437829963875	-0.01468973551273586
0.004	0.349026660385765	-0.01955544720477921
0.005	0.3490189267436734	0.004088180423005551
0.006	0.3490312577123216	0.02057372912740466
0.007	0.3490609302115606	0.03877120258496453
0.008	0.3491085531833129	0.05647463376533081
0.009000000000000001	0.3491739068388079	0.07423253017868402
0.01	0.3492569773937133	0.09190839272783617
0.011	0.3493576997419958	0.109536077224901
0.012	0.3494760214513563	0.1271070752981833
0.013	0.3496118868494908	0.1446234153176961
0.01400000000000001	0.3497652409828962	0.1620845065139593
0.01500000000000001	0.3499360286335929	0.1794904107053464
0.01600000000000001	0.3501241945648932	0.1968410286579706
0.01700000000000001	0.3503296834615224	0.2141363024319043
0.01800000000000001	0.3505524399457526	0.2313761650625881
0.01900000000000001	0.3507924085746372	0.2485605530771572
0.02000000000000001	0.3510495338419469	0.2656894033843394
0.02100000000000001	0.3513237601789394	0.2827626540504077
0.02200000000000001	0.351615031955422	0.2997802441086485
0.02300000000000001	0.3519232934807432	0.3167421136091181
0.02400000000000001	0.3522484890048043	0.3336482036085794
0.02500000000000002	0.352590562719069	0.3504984561752525
0.02600000000000002	0.3529494587575747	0.3672928143898206
0.02700000000000002	0.3533251211979465	0.3840312223473067
0.02800000000000002	0.3537174940624122	0.4007136251586753
0.02900000000000002	0.3541265213188186	0.4173399689524453
0.03000000000000002	0.3545521468816505	0.4339102008762431
0.03100000000000002	0.3549943146130501	0.4504242690983152
0.03200000000000002	0.3554529683238387	0.4668821228089967
0.03300000000000002	0.3559280517745389	0.4832837122221368
0.03400000000000002	0.3564195086763997	0.4996289885764837
0.03500000000000002	0.3569272826924212	0.5159179041370269
0.03600000000000003	0.3574513174383823	0.5321504121963
0.03700000000000003	0.3579915564838682	0.5483264670756443
0.03800000000000003	0.3585479433533001	0.5644460241264325
0.03900000000000003	0.3591204215269659	0.5805090397312551
0.04000000000000003	0.3597089344420519	0.5965154713050684
0.04100000000000003	0.3603134254936757	0.6124652772963065
0.04200000000000003	0.3609338380359204	0.6283584171879562
0.04300000000000003	0.3615701153828694	0.6441948514985963
0.04400000000000003	0.3622222008096426	0.6599745417834031
0.04500000000000003	0.3628900375534337	0.6756974506351187
0.04600000000000003	0.3635735688145478	0.6913635416849878
0.04700000000000003	0.3642727377574409	0.7069727796036601
0.04800000000000004	0.3649874875117592	0.7225251301020591
0.04900000000000004	0.3657177611733801	0.7380205599322194
0.05000000000000004	0.3664599582826001	0.7463719991020902
0.05100000000000004	0.3672117589377267	0.757227630755653
0.05200000000000004	0.3679744302713059	0.7681133322059317
0.05300000000000004	0.3687507591484155	0.7845426878132155
0.05400000000000004	0.369542792484753	0.7995222161163441
0.05500000000000004	0.3703499500361344	0.8147910846842779
0.05600000000000004	0.3711723048699586	0.8299167476550413
0.05700000000000004	0.372009767548976	0.8450067419571724
0.05800000000000004	0.3728622890172086	0.8600342931154124
0.05900000000000005	0.3737298101457368	0.8750060297449425
0.06000000000000005	0.3746122742814195	0.8899202747833673
0.06100000000000005	0.3755096241274726	0.9047774180078487
0.06200000000000005	0.3764218025205425	0.9195773365036324
0.06300000000000004	0.377348752238766	0.9343200361660104
0.06400000000000004	0.3782904160508125	0.9490054921663044
0.06500000000000004	0.3792467367049981	0.9636336886267394
0.06600000000000004	0.3802176569333033	0.9782046087542035
0.06700000000000005	0.3812031194516842	0.9927182372943086
0.06800000000000005	0.3822030669613069	1.007174559921494
0.06900000000000005	0.383217442149552	1.021573563391069
0.07000000000000005	0.3842461876910768	1.035915235501736
0.07100000000000005	0.3852892462488636	1.050199565105216
0.07200000000000005	0.3863465604752715	1.064426542104121
0.07300000000000005	0.3874180730130878	1.078596157452727
0.07400000000000005	0.3885037264965796	1.092708403156982
0.07500000000000005	0.3895963185779807	1.092473338971191
0.07600000000000005	0.3906916233561836	1.09813379184005
0.07700000000000005	0.3917929012734276	1.104419604928773
0.07800000000000006	0.3929052702623992	1.120315911870508
0.07900000000000006	0.3940323047981976	1.133750667291246
0.08000000000000006	0.3951730444189865	1.147726052731909
0.08100000000000006	0.3963276564483184	1.161495454934308
0.08200000000000006	0.3974960277390581	1.175244546402157
0.08300000000000006	0.3986781148926471	1.188927151631695
0.08400000000000006	0.399873857164697	1.202554754505352
0.08500000000000006	0.4010681480638161	1.186024410302431
0.08600000000000006	0.4022647187799742	1.207114384893427
0.08700000000000006	0.4034776659012983	1.218777185912567
0.08800000000000006	0.4047034123517024	1.232713016264499
0.08900000000000007	0.4059427763074079	1.246012167975014
